# xmcd
#
# Track frame offsets:
#	150
#	15545
#	36430
#	58295
#	74567
#	86500
#	88387
#	101012
#	117457
#	125275
#	145817
#	155052
#
# Disc length: 2109 seconds
#
# Revision: 0
# Processed by: cddbd v1.5.1PL0 Copyright (c) Steve Scherf et al.
# Submitted via: dBpowerAMP V4.0
#
DISCID=b1083b0c
DTITLE=Don Readel - Thr Balance
DYEAR=1900
DGENRE=
TTITLE0=The Eagle
TTITLE1=This Moment
TTITLE2=Sixth of June
TTITLE3=In The Midst
TTITLE4=Don't Like It?...Leave !
TTITLE5=Shortest Song
TTITLE6=In The Morning
TTITLE7=Let Jesus In
TTITLE8=Lonely Night
TTITLE9=I'm A Sinner
TTITLE10=Thank-You Song
TTITLE11=Shortest Song (Repise)
EXTD=Don Readel The Balance
EXTT0=
EXTT1=
EXTT2=
EXTT3=
EXTT4=
EXTT5=
EXTT6=
EXTT7=
EXTT8=
EXTT9=
EXTT10=
EXTT11=
PLAYORDER=
